<svg width="24" height="24" viewBox="0 0 24 24" fill="none" xmlns="http://www.w3.org/2000/svg">
<path d="M22.5747 9.76467L18.6709 1.91602C18.5449 1.66116 18.2842 1.5 18 1.5H15.75C15.75 1.08544 15.4146 0.75 15 0.75H9C8.58544 0.75 8.25 1.08544 8.25 1.5H6C5.7158 1.5 5.45653 1.66116 5.32908 1.91456L1.40114 9.77053C0.621094 9.82327 0 10.4561 0 11.25C0 12.0791 0.671625 12.75 1.5 12.75V21.75C1.5 22.5791 2.17162 23.25 3 23.25H21C21.8291 23.25 22.5 22.5791 22.5 21.75V12.75C23.3291 12.75 24 12.0791 24 11.25C24 10.4473 23.3672 9.80569 22.5747 9.76467ZM6.46364 3H8.25C8.25 3.41456 8.58544 3.75 9 3.75H15C15.4146 3.75 15.75 3.41456 15.75 3H17.5357L20.8931 9.75H3.08864L6.46364 3ZM5.25 21C5.25 21.4146 4.91456 21.75 4.5 21.75C4.08544 21.75 3.75 21.4146 3.75 21V13.5C3.75 13.0854 4.08544 12.75 4.5 12.75C4.91456 12.75 5.25 13.0854 5.25 13.5V21ZM8.25 21C8.25 21.4146 7.91456 21.75 7.5 21.75C7.08544 21.75 6.75 21.4146 6.75 21V13.5C6.75 13.0854 7.08544 12.75 7.5 12.75C7.91456 12.75 8.25 13.0854 8.25 13.5V21ZM11.25 21C11.25 21.4146 10.9146 21.75 10.5 21.75C10.0854 21.75 9.75 21.4146 9.75 21V13.5C9.75 13.0854 10.0854 12.75 10.5 12.75C10.9146 12.75 11.25 13.0854 11.25 13.5V21ZM14.25 21C14.25 21.4146 13.9146 21.75 13.5 21.75C13.0854 21.75 12.75 21.4146 12.75 21V13.5C12.75 13.0854 13.0854 12.75 13.5 12.75C13.9146 12.75 14.25 13.0854 14.25 13.5V21ZM17.25 21C17.25 21.4146 16.9146 21.75 16.5 21.75C16.0854 21.75 15.75 21.4146 15.75 21V13.5C15.75 13.0854 16.0854 12.75 16.5 12.75C16.9146 12.75 17.25 13.0854 17.25 13.5V21ZM20.25 21C20.25 21.4146 19.9146 21.75 19.5 21.75C19.0854 21.75 18.75 21.4146 18.75 21V13.5C18.75 13.0854 19.0854 12.75 19.5 12.75C19.9146 12.75 20.25 13.0854 20.25 13.5V21Z" fill="white"/>
</svg>
